<svg xmlns="http://www.w3.org/2000/svg" xmlns:xlink="http://www.w3.org/1999/xlink" width="130" zoomAndPan="magnify" viewBox="0 0 97.5 60" height="80" preserveAspectRatio="xMidYMid meet" version="1.0"><defs><g/><clipPath id="id1"><path d="M 17 39.523438 L 89.136719 39.523438 L 89.136719 52 L 17 52 Z M 17 39.523438 " clip-rule="nonzero"/></clipPath><clipPath id="id2"><path d="M 11.136719 39.523438 L 18 39.523438 L 18 56.773438 L 11.136719 56.773438 Z M 11.136719 39.523438 " clip-rule="nonzero"/></clipPath><clipPath id="id3"><path d="M 11.136719 51 L 89.136719 51 L 89.136719 56.773438 L 11.136719 56.773438 Z M 11.136719 51 " clip-rule="nonzero"/></clipPath><clipPath id="id4"><path d="M 28.0625 14.742188 L 71.5625 14.742188 L 71.5625 30.492188 L 28.0625 30.492188 Z M 28.0625 14.742188 " clip-rule="nonzero"/></clipPath><clipPath id="id5"><path d="M 11.136719 6.152344 L 32.136719 6.152344 L 32.136719 25.652344 L 11.136719 25.652344 Z M 11.136719 6.152344 " clip-rule="nonzero"/></clipPath><clipPath id="id6"><path d="M 67.105469 16.070312 L 88.855469 16.070312 L 88.855469 37.070312 L 67.105469 37.070312 Z M 67.105469 16.070312 " clip-rule="nonzero"/></clipPath></defs><g clip-path="url(#id1)"><path fill="#127276" d="M 17.75 39.523438 L 89.125 39.523438 L 89.125 51.621094 L 17.75 51.621094 L 17.75 39.523438 " fill-opacity="1" fill-rule="nonzero"/></g><g clip-path="url(#id2)"><path fill="#3a8e92" d="M 17.75 46.109375 L 17.75 51.621094 L 11.144531 56.773438 L 11.144531 44.675781 L 17.75 39.523438 L 17.75 46.109375 " fill-opacity="1" fill-rule="nonzero"/></g><g clip-path="url(#id3)"><path fill="#155659" d="M 89.125 51.621094 L 82.519531 56.773438 L 11.144531 56.773438 L 17.75 51.621094 L 89.125 51.621094 " fill-opacity="1" fill-rule="nonzero"/></g><g clip-path="url(#id4)"><path fill="#211c1d" d="M 30.921875 30.488281 L 44.613281 30.488281 L 48.75 22.25 L 53.171875 30.488281 L 67.433594 30.488281 L 71.570312 14.75 L 28.070312 14.75 L 30.921875 30.488281 " fill-opacity="1" fill-rule="nonzero"/></g><path fill="#ffffff" d="M 30.207031 16.378906 L 32.46875 28.859375 L 43.328125 28.859375 L 46.609375 22.328125 L 46.609375 16.378906 L 30.207031 16.378906 " fill-opacity="1" fill-rule="nonzero"/><path fill="#ffffff" d="M 51.109375 22.328125 L 54.617188 28.859375 L 65.929688 28.859375 L 69.207031 16.378906 L 51.109375 16.378906 L 51.109375 22.328125 " fill-opacity="1" fill-rule="nonzero"/><path fill="#4aa4e0" d="M 45.867188 16.378906 L 30.207031 16.378906 L 30.589844 18.484375 L 30.699219 19.089844 L 31.640625 24.285156 L 31.835938 25.359375 L 31.84375 25.398438 L 32.300781 27.925781 L 32.371094 28.3125 L 32.46875 28.859375 L 43.328125 28.859375 L 46.609375 22.328125 L 46.609375 16.378906 L 45.867188 16.378906 " fill-opacity="1" fill-rule="nonzero"/><path fill="#ed1d24" d="M 67.167969 16.378906 L 51.109375 16.378906 L 51.109375 22.328125 L 52.53125 24.972656 L 52.625 25.152344 L 53.683594 27.121094 L 53.722656 27.191406 L 53.890625 27.503906 L 53.90625 27.539062 L 54.199219 28.085938 L 54.300781 28.273438 L 54.617188 28.859375 L 65.929688 28.859375 L 66.25 27.636719 L 66.320312 27.367188 L 68.804688 17.914062 L 69.152344 16.59375 L 69.207031 16.378906 L 67.167969 16.378906 " fill-opacity="1" fill-rule="nonzero"/><path fill="#ffffff" d="M 32.46875 28.859375 L 31.84375 25.394531 L 31.84375 25.398438 L 32.300781 27.925781 L 32.371094 28.3125 L 32.46875 28.859375 " fill-opacity="1" fill-rule="nonzero"/><path fill="#ffffff" d="M 31.796875 25.140625 L 31.476562 23.371094 L 31.640625 24.285156 L 31.679688 24.5 L 31.796875 25.140625 " fill-opacity="1" fill-rule="nonzero"/><path fill="#4ebaeb" d="M 43.328125 28.859375 L 32.46875 28.859375 L 32.371094 28.3125 L 32.300781 27.925781 L 31.84375 25.398438 L 31.84375 25.394531 L 31.796875 25.140625 L 31.679688 24.5 L 31.640625 24.285156 L 31.476562 23.371094 L 30.207031 16.378906 L 43.328125 28.859375 " fill-opacity="1" fill-rule="nonzero"/><path fill="#ffffff" d="M 54.617188 28.859375 L 54.03125 27.765625 L 54.199219 28.085938 L 54.300781 28.273438 L 54.617188 28.859375 " fill-opacity="1" fill-rule="nonzero"/><path fill="#ffffff" d="M 53.816406 27.371094 L 52.574219 25.050781 L 52.625 25.152344 L 53.683594 27.121094 L 53.722656 27.191406 L 53.816406 27.371094 " fill-opacity="1" fill-rule="nonzero"/><path fill="#ee2935" d="M 65.929688 28.859375 L 54.617188 28.859375 L 54.300781 28.273438 L 54.199219 28.085938 L 54.03125 27.765625 L 53.816406 27.371094 L 53.722656 27.191406 L 53.683594 27.121094 L 52.625 25.152344 L 52.574219 25.050781 L 51.109375 22.328125 L 51.109375 16.378906 L 65.929688 28.859375 " fill-opacity="1" fill-rule="nonzero"/><g clip-path="url(#id5)"><path fill="#dd0d35" d="M 26.949219 6.15625 L 11.136719 6.15625 L 11.136719 25.652344 L 13.546875 25.652344 L 13.546875 8.507812 L 32.136719 8.507812 L 32.136719 6.15625 L 26.949219 6.15625 " fill-opacity="1" fill-rule="nonzero"/></g><g fill="#dcff02" fill-opacity="1"><g transform="translate(25.994089, 49.242279)"><g><path d="M 3.375 -3.09375 L 1.96875 -3.03125 L 1.765625 -1.1875 L 3.484375 -1.234375 C 3.566406 -1.234375 3.609375 -1.195312 3.609375 -1.125 L 3.484375 -0.1875 C 3.484375 -0.125 3.445312 -0.0859375 3.375 -0.078125 L 0.59375 0.015625 C 0.53125 0.015625 0.5 -0.0078125 0.5 -0.0625 L 1.28125 -6.90625 C 1.289062 -6.96875 1.328125 -7 1.390625 -7 L 3.875 -7.09375 C 3.945312 -7.082031 3.984375 -7.039062 3.984375 -6.96875 L 3.875 -6.03125 C 3.863281 -5.957031 3.820312 -5.914062 3.75 -5.90625 L 2.296875 -5.875 L 2.109375 -4.1875 L 3.5 -4.234375 C 3.570312 -4.234375 3.609375 -4.195312 3.609375 -4.125 L 3.5 -3.203125 C 3.488281 -3.128906 3.445312 -3.09375 3.375 -3.09375 Z M 3.375 -3.09375 "/></g></g></g><g fill="#dcff02" fill-opacity="1"><g transform="translate(30.081488, 49.242279)"><g><path d="M 4.8125 -6.953125 L 4.03125 -0.140625 C 4.019531 -0.078125 3.976562 -0.0390625 3.90625 -0.03125 L 3.015625 0.015625 C 2.960938 0.015625 2.929688 -0.0078125 2.921875 -0.0625 L 1.984375 -4.890625 L 1.640625 -0.125 C 1.640625 -0.0507812 1.601562 -0.015625 1.53125 -0.015625 L 0.59375 0.015625 C 0.53125 0.015625 0.5 -0.0078125 0.5 -0.0625 L 1.28125 -6.90625 C 1.289062 -6.96875 1.328125 -7 1.390625 -7 L 2.3125 -7.0625 C 2.351562 -7.0625 2.378906 -7.050781 2.390625 -7.03125 C 2.410156 -7.007812 2.425781 -6.984375 2.4375 -6.953125 L 3.34375 -2.390625 L 3.65625 -6.90625 C 3.664062 -6.96875 3.707031 -7 3.78125 -7 L 4.6875 -7.0625 C 4.769531 -7.0625 4.8125 -7.023438 4.8125 -6.953125 Z M 4.8125 -6.953125 "/></g></g></g><g fill="#dcff02" fill-opacity="1"><g transform="translate(34.981851, 49.242279)"><g><path d="M 0.921875 -6.984375 L 3.84375 -7.09375 C 3.914062 -7.09375 3.953125 -7.054688 3.953125 -6.984375 L 3.828125 -6.046875 C 3.828125 -6.003906 3.816406 -5.972656 3.796875 -5.953125 C 3.785156 -5.941406 3.757812 -5.929688 3.71875 -5.921875 L 2.84375 -5.890625 L 2.1875 -0.125 C 2.175781 -0.0507812 2.132812 -0.015625 2.0625 -0.015625 L 1.125 0.015625 C 1.0625 0.015625 1.03125 -0.0078125 1.03125 -0.0625 L 1.703125 -5.859375 L 0.796875 -5.828125 C 0.722656 -5.828125 0.6875 -5.863281 0.6875 -5.9375 L 0.796875 -6.875 C 0.804688 -6.945312 0.847656 -6.984375 0.921875 -6.984375 Z M 0.921875 -6.984375 "/></g></g></g><g fill="#dcff02" fill-opacity="1"><g transform="translate(38.55889, 49.242279)"><g><path d="M 3.375 -3.09375 L 1.96875 -3.03125 L 1.765625 -1.1875 L 3.484375 -1.234375 C 3.566406 -1.234375 3.609375 -1.195312 3.609375 -1.125 L 3.484375 -0.1875 C 3.484375 -0.125 3.445312 -0.0859375 3.375 -0.078125 L 0.59375 0.015625 C 0.53125 0.015625 0.5 -0.0078125 0.5 -0.0625 L 1.28125 -6.90625 C 1.289062 -6.96875 1.328125 -7 1.390625 -7 L 3.875 -7.09375 C 3.945312 -7.082031 3.984375 -7.039062 3.984375 -6.96875 L 3.875 -6.03125 C 3.863281 -5.957031 3.820312 -5.914062 3.75 -5.90625 L 2.296875 -5.875 L 2.109375 -4.1875 L 3.5 -4.234375 C 3.570312 -4.234375 3.609375 -4.195312 3.609375 -4.125 L 3.5 -3.203125 C 3.488281 -3.128906 3.445312 -3.09375 3.375 -3.09375 Z M 3.375 -3.09375 "/></g></g></g><g fill="#dcff02" fill-opacity="1"><g transform="translate(42.646289, 49.242279)"><g><path d="M 4.34375 -0.109375 C 4.34375 -0.046875 4.300781 -0.015625 4.21875 -0.015625 L 3.203125 0.015625 C 3.160156 0.015625 3.128906 -0.0078125 3.109375 -0.0625 L 1.96875 -2.9375 L 1.65625 -0.125 C 1.644531 -0.0507812 1.609375 -0.015625 1.546875 -0.015625 L 0.59375 0.015625 C 0.53125 0.015625 0.5 -0.0078125 0.5 -0.0625 L 1.28125 -6.859375 C 1.28125 -6.921875 1.289062 -6.957031 1.3125 -6.96875 C 1.332031 -6.988281 1.492188 -7.007812 1.796875 -7.03125 C 2.097656 -7.0625 2.492188 -7.078125 2.984375 -7.078125 C 3.484375 -7.078125 3.867188 -6.945312 4.140625 -6.6875 C 4.410156 -6.425781 4.546875 -6.085938 4.546875 -5.671875 C 4.546875 -5.253906 4.492188 -4.882812 4.390625 -4.5625 C 4.296875 -4.25 4.132812 -3.960938 3.90625 -3.703125 C 3.675781 -3.453125 3.390625 -3.265625 3.046875 -3.140625 L 4.328125 -0.15625 C 4.335938 -0.144531 4.34375 -0.128906 4.34375 -0.109375 Z M 2.3125 -6.03125 L 2.0625 -3.78125 C 2.625 -3.8125 3.007812 -4.066406 3.21875 -4.546875 C 3.332031 -4.804688 3.390625 -5.066406 3.390625 -5.328125 C 3.390625 -5.597656 3.332031 -5.785156 3.21875 -5.890625 C 3.113281 -5.992188 2.957031 -6.046875 2.75 -6.046875 C 2.539062 -6.046875 2.394531 -6.039062 2.3125 -6.03125 Z M 2.3125 -6.03125 "/></g></g></g><g fill="#dcff02" fill-opacity="1"><g transform="translate(47.307279, 49.242279)"><g><path d="M 0.921875 -6.984375 L 3.84375 -7.09375 C 3.914062 -7.09375 3.953125 -7.054688 3.953125 -6.984375 L 3.828125 -6.046875 C 3.828125 -6.003906 3.816406 -5.972656 3.796875 -5.953125 C 3.785156 -5.941406 3.757812 -5.929688 3.71875 -5.921875 L 2.84375 -5.890625 L 2.1875 -0.125 C 2.175781 -0.0507812 2.132812 -0.015625 2.0625 -0.015625 L 1.125 0.015625 C 1.0625 0.015625 1.03125 -0.0078125 1.03125 -0.0625 L 1.703125 -5.859375 L 0.796875 -5.828125 C 0.722656 -5.828125 0.6875 -5.863281 0.6875 -5.9375 L 0.796875 -6.875 C 0.804688 -6.945312 0.847656 -6.984375 0.921875 -6.984375 Z M 0.921875 -6.984375 "/></g></g></g><g fill="#dcff02" fill-opacity="1"><g transform="translate(50.884318, 49.242279)"><g><path d="M 3.328125 -6.9375 L 3.859375 -0.125 C 3.859375 -0.0625 3.820312 -0.0234375 3.75 -0.015625 L 2.796875 0.015625 C 2.734375 0.015625 2.703125 -0.0078125 2.703125 -0.0625 L 2.640625 -1.5625 L 1.609375 -1.515625 L 1.28125 -0.125 C 1.269531 -0.0820312 1.253906 -0.0507812 1.234375 -0.03125 C 1.222656 -0.0195312 1.195312 -0.015625 1.15625 -0.015625 L 0.21875 0.015625 C 0.15625 0.015625 0.125 -0.0078125 0.125 -0.0625 L 2.109375 -6.90625 C 2.128906 -6.96875 2.171875 -7 2.234375 -7 L 3.234375 -7.046875 C 3.296875 -7.035156 3.328125 -7 3.328125 -6.9375 Z M 2.484375 -5.078125 L 1.84375 -2.484375 L 2.59375 -2.5 Z M 2.484375 -5.078125 "/></g></g></g><g fill="#dcff02" fill-opacity="1"><g transform="translate(55.238189, 49.242279)"><g><path d="M 2.421875 -6.921875 L 1.640625 -0.125 C 1.628906 -0.0507812 1.59375 -0.015625 1.53125 -0.015625 L 0.59375 0.015625 C 0.53125 0.015625 0.5 -0.0078125 0.5 -0.0625 L 1.28125 -6.90625 C 1.289062 -6.96875 1.328125 -7 1.390625 -7 L 2.296875 -7.03125 C 2.378906 -7.03125 2.421875 -6.992188 2.421875 -6.921875 Z M 2.421875 -6.921875 "/></g></g></g><g fill="#dcff02" fill-opacity="1"><g transform="translate(57.753859, 49.242279)"><g><path d="M 4.8125 -6.953125 L 4.03125 -0.140625 C 4.019531 -0.078125 3.976562 -0.0390625 3.90625 -0.03125 L 3.015625 0.015625 C 2.960938 0.015625 2.929688 -0.0078125 2.921875 -0.0625 L 1.984375 -4.890625 L 1.640625 -0.125 C 1.640625 -0.0507812 1.601562 -0.015625 1.53125 -0.015625 L 0.59375 0.015625 C 0.53125 0.015625 0.5 -0.0078125 0.5 -0.0625 L 1.28125 -6.90625 C 1.289062 -6.96875 1.328125 -7 1.390625 -7 L 2.3125 -7.0625 C 2.351562 -7.0625 2.378906 -7.050781 2.390625 -7.03125 C 2.410156 -7.007812 2.425781 -6.984375 2.4375 -6.953125 L 3.34375 -2.390625 L 3.65625 -6.90625 C 3.664062 -6.96875 3.707031 -7 3.78125 -7 L 4.6875 -7.0625 C 4.769531 -7.0625 4.8125 -7.023438 4.8125 -6.953125 Z M 4.8125 -6.953125 "/></g></g></g><g fill="#dcff02" fill-opacity="1"><g transform="translate(62.654222, 49.242279)"><g><path d="M 2.296875 -0.0625 L 1.921875 -5.46875 L 1.578125 -0.125 C 1.566406 -0.0507812 1.523438 -0.015625 1.453125 -0.015625 L 0.59375 0.015625 C 0.53125 0.015625 0.5 -0.0078125 0.5 -0.0625 L 1.28125 -6.90625 C 1.28125 -6.9375 1.285156 -6.957031 1.296875 -6.96875 C 1.316406 -6.988281 1.347656 -7 1.390625 -7 L 2.53125 -7.046875 C 2.601562 -7.046875 2.640625 -7.007812 2.640625 -6.9375 L 3.0625 -1.5 L 4.625 -6.90625 C 4.632812 -6.96875 4.675781 -7 4.75 -7 L 5.9375 -7.046875 C 6.007812 -7.046875 6.046875 -7.007812 6.046875 -6.9375 L 5.28125 -0.125 C 5.269531 -0.0507812 5.226562 -0.015625 5.15625 -0.015625 L 4.234375 0.015625 C 4.171875 0.015625 4.140625 -0.0078125 4.140625 -0.0625 L 5.015625 -5.578125 L 3.40625 -0.125 C 3.375 -0.0507812 3.328125 -0.015625 3.265625 -0.015625 L 2.390625 0.015625 C 2.328125 0.015625 2.296875 -0.0078125 2.296875 -0.0625 Z M 2.296875 -0.0625 "/></g></g></g><g fill="#dcff02" fill-opacity="1"><g transform="translate(68.810161, 49.242279)"><g><path d="M 3.375 -3.09375 L 1.96875 -3.03125 L 1.765625 -1.1875 L 3.484375 -1.234375 C 3.566406 -1.234375 3.609375 -1.195312 3.609375 -1.125 L 3.484375 -0.1875 C 3.484375 -0.125 3.445312 -0.0859375 3.375 -0.078125 L 0.59375 0.015625 C 0.53125 0.015625 0.5 -0.0078125 0.5 -0.0625 L 1.28125 -6.90625 C 1.289062 -6.96875 1.328125 -7 1.390625 -7 L 3.875 -7.09375 C 3.945312 -7.082031 3.984375 -7.039062 3.984375 -6.96875 L 3.875 -6.03125 C 3.863281 -5.957031 3.820312 -5.914062 3.75 -5.90625 L 2.296875 -5.875 L 2.109375 -4.1875 L 3.5 -4.234375 C 3.570312 -4.234375 3.609375 -4.195312 3.609375 -4.125 L 3.5 -3.203125 C 3.488281 -3.128906 3.445312 -3.09375 3.375 -3.09375 Z M 3.375 -3.09375 "/></g></g></g><g fill="#dcff02" fill-opacity="1"><g transform="translate(72.897561, 49.242279)"><g><path d="M 4.8125 -6.953125 L 4.03125 -0.140625 C 4.019531 -0.078125 3.976562 -0.0390625 3.90625 -0.03125 L 3.015625 0.015625 C 2.960938 0.015625 2.929688 -0.0078125 2.921875 -0.0625 L 1.984375 -4.890625 L 1.640625 -0.125 C 1.640625 -0.0507812 1.601562 -0.015625 1.53125 -0.015625 L 0.59375 0.015625 C 0.53125 0.015625 0.5 -0.0078125 0.5 -0.0625 L 1.28125 -6.90625 C 1.289062 -6.96875 1.328125 -7 1.390625 -7 L 2.3125 -7.0625 C 2.351562 -7.0625 2.378906 -7.050781 2.390625 -7.03125 C 2.410156 -7.007812 2.425781 -6.984375 2.4375 -6.953125 L 3.34375 -2.390625 L 3.65625 -6.90625 C 3.664062 -6.96875 3.707031 -7 3.78125 -7 L 4.6875 -7.0625 C 4.769531 -7.0625 4.8125 -7.023438 4.8125 -6.953125 Z M 4.8125 -6.953125 "/></g></g></g><g fill="#dcff02" fill-opacity="1"><g transform="translate(77.797923, 49.242279)"><g><path d="M 0.921875 -6.984375 L 3.84375 -7.09375 C 3.914062 -7.09375 3.953125 -7.054688 3.953125 -6.984375 L 3.828125 -6.046875 C 3.828125 -6.003906 3.816406 -5.972656 3.796875 -5.953125 C 3.785156 -5.941406 3.757812 -5.929688 3.71875 -5.921875 L 2.84375 -5.890625 L 2.1875 -0.125 C 2.175781 -0.0507812 2.132812 -0.015625 2.0625 -0.015625 L 1.125 0.015625 C 1.0625 0.015625 1.03125 -0.0078125 1.03125 -0.0625 L 1.703125 -5.859375 L 0.796875 -5.828125 C 0.722656 -5.828125 0.6875 -5.863281 0.6875 -5.9375 L 0.796875 -6.875 C 0.804688 -6.945312 0.847656 -6.984375 0.921875 -6.984375 Z M 0.921875 -6.984375 "/></g></g></g><g fill="#dd0d35" fill-opacity="1"><g transform="translate(53.765148, 55.087104)"><g/></g></g><g clip-path="url(#id6)"><path fill="#00c2cb" d="M 72.480469 37.070312 L 88.855469 37.070312 L 88.855469 16.070312 L 86.355469 16.070312 L 86.355469 34.535156 L 67.109375 34.535156 L 67.109375 37.070312 L 72.480469 37.070312 " fill-opacity="1" fill-rule="nonzero"/></g></svg>